# xmcd CD database file
#
# Track frame offsets:
#	150
#	16087
#	34128
#	52840
#	67106
#	83943
#	100409
#	117360
#	136072
#	152984
#	165846
#	183808
#	197634
#	212521
#	231383
#	249645
#	264982
#	279569
#	299256
#	315343
#
# Disc length: 4436 seconds
#
# Revision: 6
# Processed by: cddbd v1.5.2PL0 Copyright (c) Steve Scherf et al.
# Submitted via: CDex 1.51
#
DISCID=10115214
DTITLE=Various Artist - Promo Only Mainstream Radio 2007 - 07
DYEAR=2007
DGENRE=Top 40
TTITLE0=Rihanna - Shut Up And Drive 132 BPM
TTITLE1=Avril Lavigne - When You're Gone 71 BPM
TTITLE2=Shop Boyz - Party Like A Rockstar (PO Clean Edit) 72 BPM @
TTITLE3=Last Goodnight - Pictures Of You 104 BPM
TTITLE4=Ne Yo - Do You 91 BPM
TTITLE5=Aly and AJ - Potential Breakup Song 158 BPM
TTITLE6=Sean Kingston - Beautiful Girls (PO Clean Edit) 130 BPM
TTITLE7=Bravery - Time Won't Let Me Go 78 BPM
TTITLE8=Chris Brown - Wall To Wall (PO Clean Edit) 94 BPM
TTITLE9=Mandy Moore - Extraordinary 91 BPM
TTITLE10=Bobby Valentino feat Timbaland  - Anonymous 62 BPM
TTITLE11=Katharine McPhee - Love Story (Album Version) 111 BPM
TTITLE12=Bob Sinclair feat Steve Edwards - World, Hold On 127 BPM
TTITLE13=Jon McLaughlin - Beautiful Disaster 78 BPM
TTITLE14=E.G. Daily - Don't Even Care 106 BPM
TTITLE15=Mims - Like This (Album Version)(PO Cean Edit) 97 BPM @
TTITLE16=Sum 41 - Underclass Hero 96 BPM
TTITLE17=Huey - Pop, Lock and Drop It (PO Clean Edit) 72 BPM @
TTITLE18=Mario - How Do I Breathe 98 BPM
TTITLE19=Amy Winehouse feat Jay Z - Rehab 72 BPM
EXTD=YEAR: 2007
EXTT0=
EXTT1=
EXTT2=
EXTT3=
EXTT4=
EXTT5=
EXTT6=
EXTT7=
EXTT8=
EXTT9=
EXTT10=
EXTT11=
EXTT12=
EXTT13=
EXTT14=
EXTT15=
EXTT16=
EXTT17=
EXTT18=
EXTT19=
PLAYORDER=
